<?xml version="1.0" encoding="utf-8"?>
<!-- Generator: Adobe Illustrator 16.0.0, SVG Export Plug-In . SVG Version: 6.00 Build 0)  -->
<!DOCTYPE svg PUBLIC "-//W3C//DTD SVG 1.1//EN" "http://www.w3.org/Graphics/SVG/1.1/DTD/svg11.dtd">
<svg version="1.1" id="Layer_1" xmlns="http://www.w3.org/2000/svg" xmlns:xlink="http://www.w3.org/1999/xlink" x="0px" y="0px"
	 width="393.125px" height="393.125px" viewBox="55.076 51.719 393.125 393.125"
	 enable-background="new 55.076 51.719 393.125 393.125" xml:space="preserve">
<polyline fill="#B11B1A" points="183.103,388.291 183.103,323.291 208,328.291 208,401.731 "/>
<g>
	<path fill="#333333" d="M55.076,184.248v141.001c0,2.602,1.834,5.014,4.91,6.439l52.82,24.486c1.758,0.815,3.797,1.255,5.892,1.255
		c2.365,0,4.7-0.567,6.573-1.59l9.81-4.385v14.378c0,2.609,1.829,5.016,4.905,6.44l104.524,48.468
		c1.753,0.817,3.792,1.245,5.901,1.245c2.445,0,4.851-0.596,6.754-1.687l0.346-0.185l105.621-47.153
		c3.177-1.415,5.07-3.85,5.07-6.508v-16.478l9.624,4.299c2.064,1.111,4.394,1.675,6.759,1.675c2.099,0,4.133-0.432,5.901-1.248
		l52.811-24.488c3.076-1.422,4.904-3.831,4.904-6.44V203.22c0-3.125-2.62-5.916-6.683-7.106l-52.891-22.23
		c-1.664-0.699-3.567-1.073-5.506-1.073c-1.984,0-3.938,0.389-5.642,1.13l-9.283,4.048v-50.133c0-1.172-0.392-2.353-1.117-3.411
		l-0.226-0.31c-0.902-1.297-2.295-2.381-4.043-3.14L258.933,75.709c-1.698-0.741-3.651-1.133-5.642-1.133
		c-1.934,0-3.842,0.371-5.505,1.073L142.15,120.101c-4.414,1.301-7.069,4.056-7.069,7.135v31.782l-9.284-4.045
		c-1.708-0.741-3.652-1.134-5.651-1.134c-1.924,0-3.833,0.371-5.496,1.069l-53.036,22.312
		C57.561,178.553,55.076,181.275,55.076,184.248z M368.201,333.418V196.014l1.447-0.631l13.387-5.82l5.371,2.227v-0.018l3.517,1.358
		l34.67,14.584v111.91l-44.88,19.974l-12.084-5.374L368.201,333.418z M255.661,402.782l1.083-309.993l89.849,39.159v230.25
		L255.661,402.782z M156.689,131.841l90.751-38.183l-1.077,309.588l-41.388-19.196l-28.336-13.142l-19.95-9.252V131.841
		L156.689,131.841z M76.684,188.742l38.181-16.063v0.054l4.905-2.128l4.394,1.828v-0.075l3.547,1.479l7.365,3.214v156.069
		l-16.869,7.221l-41.528-19.256V188.742H76.684z"/>
	<path fill="#333333" d="M164.304,263.611c0-2.278,2.605-3.976,5.797-3.771l12.004,0.77c3.191,0.203,5.796,2.231,5.796,4.505v20.922
		c0,2.274-2.55,3.717-5.666,3.204l-12.265-2.014c-3.116-0.514-5.667-2.791-5.667-5.068V263.611z"/>
	<path fill="#333333" d="M164.304,209.96c0-2.278,2.565-4.491,5.707-4.919l12.179-1.668c3.146-0.428,5.711,1.083,5.711,3.357v20.918
		c0,2.273-2.61,4.23-5.812,4.349l-11.974,0.438c-3.197,0.118-5.812-1.649-5.812-3.927V209.96z"/>
	<path fill="#333333" d="M182.601,146.03c2.916-0.944,5.295,0.15,5.295,2.423v20.772c0,2.277-2.485,4.726-5.521,5.446l-12.565,2.983
		c-3.036,0.72-5.521-0.552-5.521-2.83v-18.733c0-2.274,2.385-4.908,5.295-5.853L182.601,146.03z"/>
	<path fill="#333333" d="M226.834,283.451c3.131,0.481,5.686,2.741,5.686,5.012v25.148c0,2.273-2.46,3.504-5.466,2.727
		l-15.486-3.999c-3.006-0.776-5.466-3.271-5.466-5.549v-22.376c0-2.273,2.565-3.742,5.691-3.261L226.834,283.451z"/>
	<path fill="#333333" d="M226.819,197.436c3.141-0.442,5.706,1.055,5.706,3.332v25.148c0,2.273-2.61,4.234-5.812,4.359l-15.05,0.563
		c-3.202,0.117-5.812-1.646-5.812-3.921v-22.38c0-2.273,2.565-4.501,5.706-4.943L226.819,197.436z"/>
	<path fill="#333333" d="M338.526,263.611c0-2.278-2.604-3.976-5.791-3.771l-12.004,0.77c-3.191,0.203-5.797,2.231-5.797,4.505
		v20.922c0,2.274,2.55,3.717,5.671,3.204l12.26-2.014c3.116-0.514,5.666-2.791,5.666-5.068v-18.547H338.526z"/>
	<path fill="#333333" d="M293.427,235.101c0-2.273-2.61-4.234-5.807-4.352l-11.979-0.445c-3.195-0.121-5.807,1.644-5.807,3.92
		v25.264c0,2.277,2.605,3.987,5.792,3.799l12.004-0.695c3.191-0.185,5.792-2.195,5.792-4.473v-23.018H293.427z"/>
	<path fill="#333333" d="M338.742,182.797c0-2.277-2.505-4.683-5.566-5.349l-12.465-2.716c-3.056-0.667-5.566,0.652-5.566,2.926
		v21.04c0,2.277,2.586,4.455,5.737,4.847l12.134,1.501c3.156,0.392,5.736-1.155,5.736-3.429v-18.819H338.742z"/>
	<path fill="#333333" d="M275.085,131.067c-2.911-0.94-5.296,0.15-5.296,2.428v25.177c0,2.274,2.485,4.726,5.517,5.446l12.58,2.983
		c3.03,0.72,5.521-0.556,5.521-2.827v-23.142c0-2.278-2.389-4.908-5.295-5.856L275.085,131.067z"/>
	<path fill="#333333" d="M275.28,329.152c-3.021,0.758-5.491,3.235-5.491,5.513v25.146c0,2.277,2.355,3.321,5.227,2.32l15.961-5.557
		c2.876-0.995,5.226-3.679,5.226-5.956v-22.557c0-2.277-2.465-3.522-5.481-2.768L275.28,329.152z"/>
</g>
</svg>
