<?xml version="1.0" encoding="utf-8"?>
<!-- Generator: Adobe Illustrator 16.0.0, SVG Export Plug-In . SVG Version: 6.00 Build 0)  -->
<!DOCTYPE svg PUBLIC "-//W3C//DTD SVG 1.1//EN" "http://www.w3.org/Graphics/SVG/1.1/DTD/svg11.dtd">
<svg version="1.1" id="Layer_1" xmlns="http://www.w3.org/2000/svg" xmlns:xlink="http://www.w3.org/1999/xlink" x="0px" y="0px"
	 width="1086.879px" height="153.198px" viewBox="0 0 1086.879 153.198" enable-background="new 0 0 1086.879 153.198"
	 xml:space="preserve">
<g>
	<path fill="#333333" d="M248.243,140.113c-4.448,4.857-10.808,7.284-19.083,7.284c-3.525,0-6.745-0.456-9.656-1.369
		c-2.912-0.913-5.347-2.128-7.303-3.643c-1.955-1.517-3.604-3.295-4.946-5.336c-1.345-2.044-2.317-4.165-2.92-6.367
		c-0.602-2.203-0.902-4.466-0.902-6.787c0-2.427,0.332-4.771,1-7.028c0.667-2.257,1.705-4.373,3.111-6.35
		c1.409-1.979,3.108-3.704,5.093-5.175c1.993-1.475,4.39-2.632,7.208-3.482c2.815-0.849,5.889-1.274,9.219-1.274
		c6.084,0,11.556,1.356,16.413,4.063l1.129,0.645l-3.386,6.384l-1.162-0.613c-1.527-0.774-3.439-1.466-5.737-2.078
		c-2.302-0.615-4.61-0.92-6.932-0.92c-2.281,0-4.481,0.354-6.61,1.066c-2.129,0.707-4.023,1.705-5.691,2.997
		c-1.661,1.289-2.995,2.93-3.997,4.916c-0.996,1.987-1.498,4.164-1.498,6.529c0,3.114,0.817,5.922,2.451,8.413
		c1.633,2.491,3.897,4.432,6.783,5.816c2.896,1.388,6.144,2.082,9.755,2.082c3.957,0,7.19-0.892,9.703-2.678v-8.799h-14.345v-7.157
		h22.309v18.86H248.243z"/>
	<path fill="#333333" d="M275.424,100.941h8.897l18.117,45.812h-8.349l-5.128-11.992h-18.697l-5.126,11.992h-7.867L275.424,100.941z
		 M286.129,127.315l-6.515-16.989l-6.548,16.989H286.129z"/>
	<path fill="#333333" d="M347.798,114.064c0,1.462-0.175,2.854-0.533,4.176c-0.351,1.322-0.906,2.597-1.678,3.819
		c-0.757,1.225-1.803,2.322-3.121,3.286c-1.324,0.971-2.891,1.721-4.694,2.258l13.831,19.15h-10.573l-12.833-17.762h-7.768v17.762
		h-8.127v-45.812h19.507c0.969,0,1.853,0.028,2.664,0.081c0.8,0.055,1.782,0.184,2.927,0.387c1.155,0.204,2.173,0.479,3.065,0.822
		c0.892,0.344,1.814,0.849,2.777,1.516c0.95,0.665,1.745,1.444,2.386,2.337c0.629,0.893,1.151,2.021,1.561,3.385
		C347.594,110.836,347.798,112.365,347.798,114.064z M320.429,108.39v13.121h7.479c1.29,0,2.43-0.043,3.415-0.129
		c0.992-0.087,2.012-0.265,3.063-0.533c1.054-0.269,1.919-0.64,2.597-1.11c0.677-0.474,1.234-1.13,1.678-1.969
		c0.438-0.838,0.661-1.826,0.661-2.965c0-4.279-3.302-6.415-9.897-6.415H320.429z"/>
	<path fill="#333333" d="M360.536,100.941h40.293v4.934l-29.592,33.4h30.464v7.479h-42.135v-5l28.918-33.333h-27.948V100.941
		L360.536,100.941z"/>
	<path fill="#333333" d="M412.987,146.754v-45.812h32.141v7.479h-23.986v10.995h22.211v7.479h-22.211v12.381h23.986v7.479H412.987z"
		/>
	<path fill="#333333" d="M453.029,100.941h41.392v7.479h-16.639v38.333h-8.123v-38.333h-16.632v-7.479H453.029z"/>
	<path fill="#333333" d="M497.326,100.941h41.392v7.479h-16.635v38.333h-8.125v-38.333h-16.636v-7.479H497.326z"/>
	<path fill="#333333" d="M561.221,100.941h8.9l18.114,45.812h-8.349l-5.124-11.992h-18.701l-5.124,11.992h-7.866L561.221,100.941z
		 M571.925,127.315l-6.514-16.989l-6.545,16.989H571.925z"/>
</g>
<g>
	<path fill="#B11A1A" d="M139.259,0c-4.225,0-7.65,3.425-7.65,7.651c0,1.877,0.679,3.594,1.801,4.925
		c0.216,0.255,0.45,0.492,0.696,0.717c1.361,1.243,3.166,2.008,5.153,2.008c4.226,0,7.651-3.426,7.651-7.649
		C146.91,3.425,143.484,0,139.259,0z"/>
	<path fill="#333333" d="M124.719,101.184l45.82-45.787h-14.121l-36.16,35.915V26.884l13.697-13.59
		c-0.246-0.225-0.406-0.462-0.621-0.717L77.875,68.229C69.6,60.26,58.367,55.343,46,55.343c-25.365,0-46,20.637-46,46
		c0,25.365,20.635,46,46,46c21.944,0,40.466-15.448,45.029-36.041c0.713-3.209,1.229-6.538,1.229-9.959c0-0.014,0,0.055,0,0.055
		H81.999H46.194l64.063-64.481v110.481h10v-36.105l36.585,36.105h14.121L124.719,101.184z M46,137.39c-19.851,0-36-16.174-36-36.023
		s16.149-36.012,36-36.012c9.617,0,18.356,3.795,24.819,9.96l-35.87,35.992l0.086-0.008l-0.051,0.098h1.412h44.191
		C76.256,126.396,62.396,137.39,46,137.39z"/>
</g>
<g>
	<path fill="#333333" d="M627.397,122.577l20.891-20.988h10.414l-22.018,21.919l23.177,23.89h-10.536l-21.926-22.18v22.18h-8.125
		v-45.812h8.125v20.991H627.397z"/>
	<path fill="#333333" d="M670.242,147.397v-45.809h32.142v7.479h-23.987v10.99h22.21v7.482h-22.21v12.377h23.987v7.479H670.242z"/>
	<path fill="#333333" d="M752.387,114.706c0,1.464-0.18,2.854-0.527,4.178c-0.364,1.323-0.921,2.599-1.68,3.818
		c-0.766,1.227-1.804,2.324-3.128,3.289c-1.32,0.969-2.886,1.72-4.691,2.257l13.835,19.149h-10.579l-12.83-17.766h-7.769v17.766
		h-8.123v-45.812h19.503c0.967,0,1.854,0.027,2.655,0.082c0.812,0.053,1.784,0.183,2.939,0.385c1.149,0.205,2.172,0.479,3.057,0.822
		c0.898,0.346,1.822,0.85,2.775,1.517c0.961,0.665,1.758,1.442,2.386,2.335c0.638,0.895,1.156,2.019,1.567,3.384
		C752.181,111.48,752.387,113.01,752.387,114.706z M725.014,109.032v13.124h7.483c1.29,0,2.428-0.043,3.417-0.13
		c0.989-0.086,2.008-0.261,3.062-0.53c1.049-0.269,1.921-0.642,2.59-1.113c0.68-0.475,1.241-1.131,1.682-1.968
		c0.44-0.838,0.658-1.823,0.658-2.966c0-4.275-3.296-6.417-9.896-6.417H725.014z"/>
	<path fill="#333333" d="M768.509,101.589h8.958l25.567,35.202v-35.202h8.125v45.809h-9.06l-25.472-35.268v35.268h-8.123v-45.809
		H768.509z"/>
	<path fill="#333333" d="M827.277,147.397v-45.809h32.141v7.479h-23.986v10.99h22.213v7.482h-22.213v12.377h23.986v7.479H827.277z"
		/>
	<path fill="#333333" d="M873.925,101.589h8.962l25.569,35.202v-35.202h8.121v45.809h-9.06L882.05,112.13v35.268h-8.125V101.589
		L873.925,101.589z"/>
</g>
<g>
	<path fill="#333333" d="M975.438,101.916c4.15,0,8.247,0.614,12.295,1.845l1.281,0.374l-2.567,7.257l-1.187-0.343
		c-3.773-1.043-7.217-1.564-10.323-1.564c-3.063,0-5.69,0.499-7.866,1.502c-2.18,1.001-3.271,2.282-3.271,3.847
		c0,1.021,0.485,1.917,1.455,2.688c0.971,0.773,2.226,1.427,3.769,1.956c1.545,0.532,3.25,1.058,5.115,1.582
		c1.866,0.517,3.738,1.123,5.615,1.814c1.875,0.688,3.586,1.479,5.129,2.376c1.545,0.895,2.796,2.09,3.77,3.582
		c0.969,1.49,1.456,3.206,1.456,5.144c0,1.252-0.217,2.488-0.644,3.709c-0.428,1.219-1.146,2.424-2.16,3.613
		c-1.01,1.187-2.259,2.225-3.754,3.108c-1.488,0.891-3.388,1.608-5.689,2.159c-2.304,0.554-4.891,0.832-7.746,0.832
		s-5.432-0.267-7.725-0.799c-2.296-0.53-4.726-1.296-7.291-2.3l-1.155-0.437l2.66-7.572l1.219,0.473
		c5.275,1.877,9.624,2.815,13.042,2.815c3.216,0,5.817-0.492,7.807-1.474c1.99-0.976,2.988-2.272,2.988-3.878
		c0-0.895-0.302-1.699-0.907-2.41c-0.606-0.709-1.417-1.308-2.439-1.799c-1.022-0.488-2.195-0.942-3.521-1.361
		c-1.321-0.416-2.716-0.82-4.173-1.217c-1.461-0.398-2.923-0.824-4.382-1.283c-1.457-0.459-2.85-1.012-4.175-1.659
		c-1.326-0.647-2.495-1.376-3.52-2.189c-1.022-0.814-1.837-1.83-2.439-3.051c-0.606-1.221-0.905-2.58-0.905-4.082
		c0-3.756,1.838-6.903,5.517-9.446C964.402,103.186,969.31,101.916,975.438,101.916z"/>
	<path fill="#333333" d="M1012.57,115.302c2.315,0,4.336,0.204,6.069,0.611c1.729,0.407,3.127,0.95,4.191,1.626
		c1.062,0.678,1.917,1.52,2.563,2.52c0.648,1.001,1.092,2.023,1.333,3.066c0.238,1.04,0.358,2.209,0.358,3.503v20.146h-5.757
		l-0.877-2.038c-2.795,1.776-6.058,2.661-9.79,2.661c-3.712,0-6.751-0.91-9.119-2.736c-2.364-1.824-3.548-3.968-3.548-6.43
		c0-1.539,0.379-2.887,1.143-4.034c0.759-1.146,1.759-2.063,3.001-2.75c1.239-0.688,2.815-1.246,4.724-1.676
		c1.91-0.425,3.836-0.725,5.788-0.889c1.947-0.171,4.186-0.263,6.71-0.284v-1.095c0-0.604-0.037-1.125-0.11-1.563
		c-0.073-0.438-0.257-0.918-0.547-1.438c-0.296-0.52-0.705-0.942-1.236-1.268c-0.532-0.323-1.298-0.595-2.302-0.812
		c-0.999-0.221-2.196-0.331-3.595-0.331c-2.544,0-5.548,0.459-9.009,1.376l-1.253,0.347l-1.597-6.164l1.097-0.375
		C1004.33,115.96,1008.252,115.302,1012.57,115.302z M1010.034,98.068l15.016,11.821l-4.064,5.104l-16.326-11.513L1010.034,98.068z
		 M1019.36,138.795v-4.408h-0.785c-4.356,0-7.597,0.25-9.712,0.749c-2.118,0.501-3.175,1.346-3.175,2.534
		c0,0.774,0.645,1.484,1.922,2.142c1.285,0.656,2.864,0.987,4.741,0.987C1014.999,140.799,1017.334,140.131,1019.36,138.795z"/>
	<path fill="#333333" d="M1044.382,117.521c3.256-1.498,6.727-2.25,10.418-2.25c2.355,0,4.504,0.45,6.445,1.349l1.092,0.499
		l-2.438,6.412l-1.22-0.469c-1.461-0.564-3.05-0.847-4.756-0.847c-2.731,0-5.361,0.494-7.88,1.475v23.087h-7.698v-30.909h5.13
		L1044.382,117.521z"/>
	<path fill="#333333" d="M1068.594,99.507h7.698v47.268h-7.698V99.507z"/>
</g>
</svg>
