<?xml version="1.0" encoding="utf-8"?>
<!-- Generator: Adobe Illustrator 16.0.0, SVG Export Plug-In . SVG Version: 6.00 Build 0)  -->
<!DOCTYPE svg PUBLIC "-//W3C//DTD SVG 1.1//EN" "http://www.w3.org/Graphics/SVG/1.1/DTD/svg11.dtd">
<svg version="1.1" id="Layer_1" xmlns="http://www.w3.org/2000/svg" xmlns:xlink="http://www.w3.org/1999/xlink" x="0px" y="0px"
	 width="620.758px" height="147.396px" viewBox="0 0 620.758 147.396" enable-background="new 0 0 620.758 147.396"
	 xml:space="preserve">
<g>
	<path fill="#333333" d="M255.797,85.286c-3.425,3.74-8.323,5.61-14.696,5.61c-2.714,0-5.194-0.352-7.435-1.055
		c-2.243-0.704-4.117-1.639-5.624-2.805c-1.506-1.167-2.776-2.536-3.809-4.109c-1.036-1.573-1.784-3.207-2.248-4.902
		c-0.464-1.697-0.695-3.439-0.695-5.227c0-1.87,0.256-3.674,0.77-5.412s1.313-3.368,2.396-4.891
		c1.085-1.523,2.393-2.851,3.921-3.984c1.535-1.135,3.381-2.028,5.551-2.682c2.168-0.653,4.535-0.98,7.099-0.98
		c4.685,0,8.898,1.043,12.639,3.128l0.869,0.497l-2.607,4.915l-0.895-0.471c-1.176-0.596-2.648-1.129-4.418-1.601
		c-1.772-0.473-3.55-0.708-5.337-0.708c-1.757,0-3.452,0.273-5.091,0.819c-1.639,0.546-3.098,1.315-4.383,2.309
		c-1.279,0.993-2.306,2.256-3.078,3.786c-0.767,1.53-1.153,3.207-1.153,5.027c0,2.399,0.629,4.56,1.887,6.48
		c1.258,1.919,3.001,3.413,5.224,4.48c2.23,1.067,4.731,1.602,7.512,1.602c3.046,0,5.536-0.687,7.472-2.061v-6.777h-11.047v-5.511
		h17.179V85.286z"/>
	<path fill="#333333" d="M276.727,55.123h6.852L297.53,90.4h-6.429l-3.949-9.235h-14.398l-3.947,9.235h-6.058L276.727,55.123z
		 M284.97,75.431l-5.016-13.083l-5.042,13.083H284.97z"/>
	<path fill="#333333" d="M332.459,65.227c0,1.126-0.134,2.198-0.409,3.216c-0.272,1.018-0.701,1.999-1.293,2.941
		c-0.583,0.943-1.389,1.788-2.403,2.532c-1.021,0.745-2.226,1.324-3.615,1.738l10.65,14.746h-8.142l-9.882-13.679h-5.981V90.4
		h-6.258V55.123h15.021c0.745,0,1.426,0.021,2.05,0.062c0.618,0.041,1.373,0.141,2.255,0.297c0.89,0.158,1.672,0.369,2.361,0.633
		c0.686,0.265,1.396,0.654,2.137,1.167c0.733,0.513,1.345,1.113,1.837,1.8c0.485,0.687,0.887,1.555,1.201,2.606
		C332.302,62.741,332.459,63.919,332.459,65.227z M311.384,60.858v10.104h5.759c0.994,0,1.87-0.033,2.631-0.1
		c0.763-0.066,1.548-0.202,2.358-0.409c0.812-0.207,1.477-0.493,2-0.857c0.521-0.364,0.95-0.869,1.292-1.514
		c0.336-0.646,0.507-1.407,0.507-2.284c0-3.294-2.54-4.94-7.62-4.94H311.384z"/>
	<path fill="#333333" d="M342.267,55.123h31.031v3.798l-22.79,25.72h23.46V90.4h-32.446v-3.849l22.268-25.669h-21.522V55.123z"/>
	<path fill="#333333" d="M382.658,90.4V55.123h24.75v5.76h-18.47v8.465h17.104v5.759h-17.104v9.534h18.47V90.4H382.658z"/>
	<path fill="#333333" d="M413.492,55.123h31.876v5.76h-12.812V90.4h-6.256V60.883h-12.809V55.123z"/>
	<path fill="#333333" d="M447.603,55.123h31.876v5.76h-12.811V90.4h-6.255V60.883h-12.811V55.123z"/>
	<path fill="#333333" d="M496.808,55.123h6.852l13.95,35.277h-6.429l-3.947-9.235h-14.399l-3.946,9.235h-6.059L496.808,55.123z
		 M505.049,75.431l-5.016-13.083l-5.038,13.083H505.049z"/>
</g>
<g>
	<path fill="#B11A1A" d="M139.259,0c-4.225,0-7.65,3.425-7.65,7.651c0,1.877,0.679,3.594,1.801,4.925
		c0.216,0.255,0.45,0.492,0.696,0.717c1.361,1.243,3.166,2.008,5.153,2.008c4.226,0,7.651-3.426,7.651-7.65
		C146.91,3.425,143.484,0,139.259,0z"/>
	<path fill="#333333" d="M124.719,101.184l45.82-45.787h-14.121l-36.16,35.915V26.884l13.697-13.59
		c-0.246-0.225-0.406-0.462-0.621-0.717L77.875,68.229C69.6,60.261,58.367,55.343,46,55.343c-25.365,0-46,20.636-46,46
		c0,25.365,20.635,46,46,46c21.944,0,40.466-15.449,45.029-36.041c0.713-3.209,1.229-6.539,1.229-9.959c0-0.014,0,0.054,0,0.054
		H81.999H46.194l64.063-64.481v110.481h10v-36.105l36.585,36.105h14.121L124.719,101.184z M46,137.39c-19.851,0-36-16.173-36-36.023
		c0-19.85,16.149-36.012,36-36.012c9.617,0,18.356,3.795,24.819,9.96l-35.87,35.992l0.086-0.007l-0.051,0.097h1.412h44.191
		C76.256,126.396,62.396,137.39,46,137.39z"/>
</g>
<g>
	<path fill="#333333" d="M233.729,128.227l16.088-16.162h8.019l-16.955,16.88l17.848,18.396h-8.116l-16.883-17.08v17.08h-6.256
		v-35.277h6.256V128.227z"/>
	<path fill="#333333" d="M266.722,147.342v-35.277h24.75v5.76h-18.47v8.464h17.104v5.761h-17.104v9.532h18.47v5.76H266.722z"/>
	<path fill="#333333" d="M329.979,122.168c0,1.127-0.138,2.197-0.407,3.216c-0.278,1.019-0.708,2-1.293,2.94
		c-0.59,0.944-1.391,1.79-2.41,2.533c-1.015,0.745-2.22,1.324-3.61,1.738l10.651,14.746h-8.144l-9.881-13.68h-5.983v13.68h-6.256
		v-35.277h15.02c0.745,0,1.429,0.021,2.046,0.062c0.624,0.041,1.373,0.14,2.263,0.297c0.884,0.158,1.671,0.369,2.354,0.633
		c0.69,0.265,1.401,0.654,2.136,1.167c0.74,0.513,1.354,1.113,1.837,1.8c0.492,0.687,0.891,1.555,1.206,2.606
		C329.821,119.683,329.979,120.861,329.979,122.168z M308.901,117.799v10.105h5.761c0.992,0,1.869-0.033,2.631-0.101
		c0.761-0.065,1.547-0.201,2.357-0.408s1.479-0.493,1.997-0.857c0.523-0.364,0.955-0.87,1.293-1.516
		c0.34-0.644,0.507-1.404,0.507-2.283c0-3.293-2.538-4.94-7.621-4.94H308.901z"/>
	<path fill="#333333" d="M342.392,112.065h6.9l19.688,27.109v-27.109h6.256v35.277h-6.976l-19.614-27.159v27.159h-6.255V112.065z"/>
	<path fill="#333333" d="M387.648,147.342v-35.277h24.751v5.76h-18.471v8.464h17.105v5.761h-17.105v9.532h18.471v5.76H387.648z"/>
	<path fill="#333333" d="M423.571,112.065h6.901l19.688,27.109v-27.109h6.255v35.277h-6.977l-19.612-27.159v27.159h-6.256V112.065z"
		/>
</g>
<g>
	<path fill="#333333" d="M501.742,112.317c3.195,0,6.351,0.474,9.467,1.421l0.987,0.289l-1.976,5.588l-0.915-0.265
		c-2.906-0.803-5.557-1.205-7.949-1.205c-2.36,0-4.38,0.385-6.058,1.157c-1.679,0.771-2.518,1.758-2.518,2.962
		c0,0.788,0.373,1.478,1.121,2.071c0.746,0.596,1.712,1.097,2.901,1.507c1.188,0.409,2.501,0.814,3.939,1.217
		c1.437,0.4,2.878,0.867,4.323,1.397c1.445,0.529,2.762,1.139,3.951,1.83c1.188,0.69,2.154,1.609,2.902,2.758
		c0.746,1.148,1.12,2.468,1.12,3.962c0,0.964-0.165,1.916-0.494,2.855s-0.884,1.866-1.663,2.782
		c-0.778,0.915-1.741,1.714-2.891,2.396c-1.147,0.684-2.609,1.238-4.384,1.662c-1.773,0.426-3.762,0.64-5.962,0.64
		s-4.184-0.205-5.949-0.615c-1.768-0.408-3.638-0.999-5.613-1.771l-0.891-0.337l2.048-5.83l0.939,0.363
		c4.062,1.445,7.41,2.168,10.044,2.168c2.474,0,4.478-0.378,6.01-1.134c1.534-0.753,2.301-1.75,2.301-2.987
		c0-0.689-0.233-1.309-0.698-1.854c-0.467-0.547-1.092-1.008-1.879-1.385c-0.787-0.378-1.69-0.727-2.71-1.05
		c-1.02-0.319-2.092-0.633-3.216-0.938c-1.125-0.306-2.249-0.634-3.372-0.988c-1.124-0.353-2.196-0.779-3.216-1.276
		c-1.02-0.498-1.923-1.06-2.71-1.687c-0.787-0.626-1.414-1.409-1.879-2.349c-0.467-0.939-0.698-1.986-0.698-3.143
		c0-2.891,1.417-5.316,4.251-7.275C493.242,113.297,497.021,112.317,501.742,112.317z"/>
	<path fill="#333333" d="M530.335,122.627c1.782,0,3.339,0.156,4.673,0.47c1.333,0.312,2.409,0.731,3.229,1.252
		c0.818,0.522,1.477,1.17,1.975,1.939c0.497,0.771,0.839,1.558,1.024,2.361c0.184,0.802,0.276,1.701,0.276,2.698v15.513h-4.432
		l-0.675-1.567c-2.153,1.367-4.665,2.049-7.539,2.049c-2.859,0-5.2-0.703-7.022-2.108c-1.822-1.404-2.733-3.055-2.733-4.951
		c0-1.187,0.292-2.224,0.879-3.106c0.586-0.883,1.356-1.589,2.312-2.119c0.955-0.529,2.169-0.96,3.637-1.289
		c1.471-0.329,2.954-0.558,4.457-0.686c1.501-0.13,3.224-0.2,5.166-0.218v-0.843c0-0.466-0.027-0.867-0.084-1.204
		c-0.056-0.337-0.196-0.707-0.421-1.108c-0.227-0.401-0.543-0.727-0.951-0.977c-0.411-0.247-1-0.457-1.771-0.625
		c-0.771-0.17-1.694-0.254-2.77-0.254c-1.96,0-4.272,0.354-6.938,1.06l-0.964,0.267l-1.229-4.747l0.843-0.289
		C523.991,123.133,527.011,122.627,530.335,122.627z M528.384,109.354l11.562,9.105l-3.131,3.928l-12.573-8.865L528.384,109.354z
		 M535.562,140.717v-3.396h-0.602c-3.356,0-5.85,0.193-7.48,0.578c-1.629,0.386-2.444,1.036-2.444,1.951
		c0,0.596,0.495,1.144,1.48,1.65c0.989,0.506,2.205,0.759,3.651,0.759C532.206,142.259,534.004,141.745,535.562,140.717z"/>
	<path fill="#333333" d="M554.832,124.336c2.506-1.156,5.18-1.734,8.022-1.734c1.814,0,3.469,0.347,4.962,1.037l0.843,0.386
		l-1.878,4.938l-0.939-0.36c-1.125-0.435-2.347-0.652-3.662-0.652c-2.104,0-4.128,0.378-6.069,1.134v17.777h-5.927v-23.8h3.95
		L554.832,124.336z"/>
	<path fill="#333333" d="M573.477,110.462h5.927v36.398h-5.927V110.462z"/>
</g>
</svg>
