<?xml version="1.0" encoding="utf-8"?>
<!-- Generator: Adobe Illustrator 16.0.0, SVG Export Plug-In . SVG Version: 6.00 Build 0)  -->
<!DOCTYPE svg PUBLIC "-//W3C//DTD SVG 1.1//EN" "http://www.w3.org/Graphics/SVG/1.1/DTD/svg11.dtd">
<svg version="1.1" xmlns="http://www.w3.org/2000/svg" xmlns:xlink="http://www.w3.org/1999/xlink" x="0px" y="0px"
	 width="393.125px" height="393.125px" viewBox="55.076 51.719 393.125 393.125"
	 enable-background="new 55.076 51.719 393.125 393.125" xml:space="preserve">
<g id="Layer_1" display="none">
	<polyline display="inline" fill="#B11B1A" points="183.103,388.291 183.103,323.291 208,328.291 208,401.731 	"/>
	<g display="inline">
		<path fill="#333333" d="M55.076,184.248v141.001c0,2.602,1.834,5.014,4.91,6.439l52.82,24.486
			c1.758,0.815,3.797,1.255,5.892,1.255c2.365,0,4.7-0.567,6.573-1.59l9.81-4.385v14.378c0,2.609,1.829,5.016,4.905,6.44
			l104.524,48.468c1.753,0.817,3.792,1.245,5.901,1.245c2.445,0,4.851-0.596,6.754-1.687l0.346-0.185l105.621-47.153
			c3.177-1.415,5.07-3.85,5.07-6.508v-16.478l9.624,4.299c2.064,1.111,4.394,1.675,6.759,1.675c2.099,0,4.133-0.432,5.901-1.248
			l52.811-24.488c3.076-1.422,4.904-3.831,4.904-6.44V203.22c0-3.125-2.62-5.916-6.683-7.106l-52.891-22.23
			c-1.664-0.699-3.567-1.073-5.506-1.073c-1.984,0-3.938,0.389-5.642,1.13l-9.283,4.048v-50.133c0-1.172-0.392-2.353-1.117-3.411
			l-0.226-0.31c-0.902-1.297-2.295-2.381-4.043-3.14L258.933,75.709c-1.698-0.741-3.651-1.133-5.642-1.133
			c-1.934,0-3.842,0.371-5.505,1.073L142.15,120.101c-4.414,1.301-7.069,4.056-7.069,7.135v31.782l-9.284-4.045
			c-1.708-0.741-3.652-1.134-5.651-1.134c-1.924,0-3.833,0.371-5.496,1.069l-53.036,22.312
			C57.561,178.553,55.076,181.275,55.076,184.248z M368.201,333.418V196.014l1.447-0.631l13.387-5.82l5.371,2.227v-0.018
			l3.517,1.358l34.67,14.584v111.91l-44.88,19.974l-12.084-5.374L368.201,333.418z M255.661,402.782l1.083-309.993l89.849,39.159
			v230.25L255.661,402.782z M156.689,131.841l90.751-38.183l-1.077,309.588l-41.388-19.196l-28.336-13.142l-19.95-9.252V131.841
			L156.689,131.841z M76.684,188.742l38.181-16.063v0.054l4.905-2.128l4.394,1.828v-0.075l3.547,1.479l7.365,3.214v156.069
			l-16.869,7.221l-41.528-19.256V188.742H76.684z"/>
		<path fill="#333333" d="M164.304,263.611c0-2.278,2.605-3.976,5.797-3.771l12.004,0.77c3.191,0.203,5.796,2.231,5.796,4.505
			v20.922c0,2.274-2.55,3.717-5.666,3.204l-12.265-2.014c-3.116-0.514-5.667-2.791-5.667-5.068V263.611z"/>
		<path fill="#333333" d="M164.304,209.96c0-2.278,2.565-4.491,5.707-4.919l12.179-1.668c3.146-0.428,5.711,1.083,5.711,3.357
			v20.918c0,2.273-2.61,4.23-5.812,4.349l-11.974,0.438c-3.197,0.118-5.812-1.649-5.812-3.927V209.96z"/>
		<path fill="#333333" d="M182.601,146.03c2.916-0.944,5.295,0.15,5.295,2.423v20.772c0,2.277-2.485,4.726-5.521,5.446
			l-12.565,2.983c-3.036,0.72-5.521-0.552-5.521-2.83v-18.733c0-2.274,2.385-4.908,5.295-5.853L182.601,146.03z"/>
		<path fill="#333333" d="M226.834,283.451c3.131,0.481,5.686,2.741,5.686,5.012v25.148c0,2.273-2.46,3.504-5.466,2.727
			l-15.486-3.999c-3.006-0.776-5.466-3.271-5.466-5.549v-22.376c0-2.273,2.565-3.742,5.691-3.261L226.834,283.451z"/>
		<path fill="#333333" d="M226.819,197.436c3.141-0.442,5.706,1.055,5.706,3.332v25.148c0,2.273-2.61,4.234-5.812,4.359
			l-15.05,0.563c-3.202,0.117-5.812-1.646-5.812-3.921v-22.38c0-2.273,2.565-4.501,5.706-4.943L226.819,197.436z"/>
		<path fill="#333333" d="M338.526,263.611c0-2.278-2.604-3.976-5.791-3.771l-12.004,0.77c-3.191,0.203-5.797,2.231-5.797,4.505
			v20.922c0,2.274,2.55,3.717,5.671,3.204l12.26-2.014c3.116-0.514,5.666-2.791,5.666-5.068v-18.547H338.526z"/>
		<path fill="#333333" d="M293.427,235.101c0-2.273-2.61-4.234-5.807-4.352l-11.979-0.445c-3.195-0.121-5.807,1.644-5.807,3.92
			v25.264c0,2.277,2.605,3.987,5.792,3.799l12.004-0.695c3.191-0.185,5.792-2.195,5.792-4.473v-23.018H293.427z"/>
		<path fill="#333333" d="M338.742,182.797c0-2.277-2.505-4.683-5.566-5.349l-12.465-2.716c-3.056-0.667-5.566,0.652-5.566,2.926
			v21.04c0,2.277,2.586,4.455,5.737,4.847l12.134,1.501c3.156,0.392,5.736-1.155,5.736-3.429v-18.819H338.742z"/>
		<path fill="#333333" d="M275.085,131.067c-2.911-0.94-5.296,0.15-5.296,2.428v25.177c0,2.274,2.485,4.726,5.517,5.446l12.58,2.983
			c3.03,0.72,5.521-0.556,5.521-2.827v-23.142c0-2.278-2.389-4.908-5.295-5.856L275.085,131.067z"/>
		<path fill="#333333" d="M275.28,329.152c-3.021,0.758-5.491,3.235-5.491,5.513v25.146c0,2.277,2.355,3.321,5.227,2.32
			l15.961-5.557c2.876-0.995,5.226-3.679,5.226-5.956v-22.557c0-2.277-2.465-3.522-5.481-2.768L275.28,329.152z"/>
	</g>
</g>
<g id="Layer_2">
	<g>
		<path d="M437.045,255.961l-54.928-87.003c-0.817-1.291-2.111-2.203-3.601-2.535c-1.494-0.329-3.047-0.054-4.337,0.769
			l-38.522,24.683c-2.651,1.699-3.435,5.221-1.752,7.884l3.285,5.206l-7.964,3.21c-0.768,0.314-1.607,0.39-2.421,0.217
			l-24.599-5.167c-14.188-2.98-28.603-3.146-42.864-0.499l-23.14,4.3c-6.337,1.178-12.129,4.141-16.782,8.475l-21.538-3.42
			c-0.269-0.042-0.53-0.111-0.784-0.203l-47.023-40.877c-2.395-2.087-6.01-1.821-8.084,0.564c-2.078,2.389-1.824,6.007,0.563,8.083
			l47.65,41.422c0.343,0.3,0.724,0.557,1.126,0.766c1.492,0.772,3.089,1.298,4.749,1.563l14.847,2.358l-15.007,19.521
			c-2.559,3.332-3.659,7.459-3.1,11.624c0.559,4.16,2.715,7.848,6.062,10.384c4.797,3.632,11.348,4.179,16.687,1.389l41.912-21.909
			c1.324-0.698,2.943-0.62,4.212,0.198l90.17,58.44c1.992,1.292,3.36,3.284,3.846,5.613c0.488,2.325,0.034,4.701-1.274,6.684
			c-2.619,3.964-7.854,5.163-11.927,2.72l-48.766-29.182c-2.712-1.625-6.233-0.745-7.861,1.977
			c-1.625,2.712-0.741,6.231,1.975,7.857l39.006,23.341c0.004,0.002,0.006,0.004,0.008,0.006l4.696,2.812
			c1.327,0.793,2.245,2.059,2.593,3.566c0.343,1.506,0.063,3.047-0.784,4.337c-2.945,4.479-8.942,5.971-13.638,3.411l-38.122-20.777
			c-2.771-1.521-6.26-0.494-7.773,2.289c-1.515,2.779-0.489,6.258,2.29,7.772l27.487,14.98l6.814,4.158
			c1.271,0.778,2.13,2.011,2.413,3.476c0.283,1.463-0.052,2.931-0.943,4.129c-0.079,0.108-0.157,0.222-0.231,0.337
			c-2.604,4.076-7.823,5.499-12.146,3.31l-29.517-14.985c-2.809-1.43-6.267-0.307-7.703,2.516c-1.432,2.821-0.305,6.271,2.52,7.702
			l24.556,12.469c-5.015,3.124-11.001,4.443-17.065,3.513l-22.181-3.392l1.574-2.258c5.014-7.191,3.633-17.184-3.142-22.751
			c-2.095-1.725-4.573-2.828-7.179-3.393c2.046-7.027-0.117-14.909-6.061-19.721c-3.147-2.548-7.047-3.943-11.046-4.09
			c0.072-1.512,0.022-3.036-0.283-4.562c-0.989-4.949-3.865-9.191-8.096-11.942c-8.347-5.432-19.667-3.203-25.374,4.926
			c-1.465-2.202-3.382-4.12-5.768-5.592c-7.283-4.492-16.538-3.307-22.472,2.451l-20.903-27.561
			c-0.676-0.889-1.593-1.562-2.641-1.937l-42.55-15.168c-2.996-1.058-6.26,0.493-7.323,3.474c-1.063,2.981,0.492,6.259,3.473,7.323
			l40.942,14.592l21.886,28.86l-6.073,8.682c-5.767,8.245-3.786,19.702,4.402,25.535l0.321,0.229
			c3.08,2.191,6.663,3.339,10.354,3.397c-0.003,5.877,2.734,11.676,7.859,15.283c0.048,0.033,0.097,0.068,0.149,0.103
			c3.145,2.178,6.797,3.312,10.542,3.312c1.115,0,2.241-0.101,3.361-0.306c1.041-0.188,2.032-0.504,3.006-0.854
			c1.588,4.128,4.524,7.634,8.472,9.757c2.805,1.511,5.835,2.233,8.827,2.233c2.831,0,5.621-0.667,8.162-1.909
			c1.83,3.414,4.759,6.123,8.424,7.638c2.13,0.876,4.335,1.298,6.51,1.298c5.107,0,10.011-2.353,13.287-6.583l27.809,4.254
			c1.884,0.289,3.764,0.431,5.63,0.431c9.594,0,18.734-3.781,25.618-10.59c0.657,0.063,1.316,0.115,1.972,0.115
			c6.832,0,13.449-3.381,17.422-9.478c2.118-2.922,3.178-6.45,3.135-10.019c0.083,0.002,0.168,0.017,0.253,0.017
			c7.157,0,14.188-3.497,18.335-9.805c1.677-2.547,2.538-5.425,2.708-8.375c0.468,0.031,0.933,0.091,1.4,0.091
			c6.599,0,13.041-3.226,16.943-9.135c3.007-4.555,4.047-10.006,2.928-15.349c-0.15-0.718-0.428-1.383-0.649-2.071l21.968-20.76
			l0.587,0.929c0.817,1.29,2.113,2.202,3.6,2.535c0.415,0.091,0.833,0.136,1.248,0.136c1.085,0,2.159-0.31,3.092-0.904
			l38.521-24.684C437.944,262.145,438.729,258.624,437.045,255.961z M160.156,333.576c-3.093-2.202-3.839-6.524-1.664-9.636
			l10.912-15.6c1.332-1.906,3.458-2.944,5.666-2.944c1.287,0,2.597,0.352,3.794,1.09c1.63,1.008,2.749,2.592,3.149,4.461
			c0.366,1.709,0.056,3.433-0.82,4.925l-11.467,16.787c-1.034,1.209-2.419,2.041-4.008,2.324c-1.843,0.325-3.715-0.091-5.242-1.178
			L160.156,333.576z M184.046,353.651c-1.917,0.35-3.816-0.081-5.386-1.188c-0.038-0.026-0.079-0.054-0.12-0.08
			c-3.104-2.258-3.873-6.639-1.701-9.819l2.337-3.422c0.157-0.21,0.353-0.379,0.502-0.597c3.388-4.948,7.39-10.835,10.777-15.829
			c0.092-0.135,0.142-0.285,0.229-0.423l9.157-13.406c2.178-3.186,6.569-4.075,9.807-1.961c1.627,1.06,2.731,2.687,3.112,4.588
			s-0.012,3.833-1.104,5.435l-3.167,4.646c-0.062,0.086-0.145,0.151-0.206,0.239l-17.235,25.049
			c-0.305,0.443-0.499,0.94-0.762,1.403l-1.607,2.357C187.591,352.238,185.945,353.306,184.046,353.651z M202.986,363.733
			c-1.813-0.976-3.078-2.616-3.559-4.617c-0.36-1.488-0.241-2.989,0.32-4.361l18.205-26.696c1.141-1.495,2.762-2.481,4.639-2.754
			c0.35-0.05,0.701-0.075,1.052-0.075c1.623,0,3.182,0.548,4.473,1.595c2.884,2.334,3.496,6.558,1.395,9.615l-5.181,7.536
			c-0.122,0.16-0.277,0.289-0.393,0.453l-8.394,12.05c-0.287,0.414-0.459,0.875-0.707,1.305l-2.549,3.71
			C210.212,364.505,206.213,365.473,202.986,363.733z M227.35,371.195c-1.537-0.635-2.689-1.914-3.156-3.511
			c-0.345-1.169-0.28-2.392,0.148-3.501l9.407-13.681c0.863-0.979,2.008-1.629,3.322-1.812c0.257-0.035,0.511-0.054,0.765-0.054
			c1.257,0,2.462,0.43,3.458,1.247c2.186,1.797,2.63,5.022,1.011,7.344l-8.394,12.044
			C232.435,371.389,229.737,372.18,227.35,371.195z M359.688,297.053c-0.532-0.425-1.017-0.895-1.596-1.269l-90.169-58.44
			c-4.73-3.068-10.766-3.343-15.753-0.736l-41.913,21.909c-1.417,0.743-3.171,0.602-4.458-0.374
			c-0.895-0.678-1.47-1.662-1.619-2.775c-0.153-1.113,0.141-2.216,0.828-3.107l19.724-25.656c3.346-4.355,8.166-7.306,13.568-8.312
			l23.14-4.3c12.771-2.372,25.691-2.224,38.409,0.447l24.602,5.169c3.05,0.639,6.187,0.361,9.062-0.804l9.896-3.989l38.604,61.142
			L359.688,297.053z M395.444,275.766l-48.812-77.313l28.874-18.5l48.81,77.314L395.444,275.766z"/>
		<path d="M363.509,197.856c-1.07,1.071-1.682,2.561-1.682,4.05c0,0.382,0.038,0.765,0.117,1.107
			c0.074,0.383,0.189,0.727,0.342,1.072c0.116,0.342,0.306,0.687,0.495,0.992c0.233,0.307,0.46,0.612,0.728,0.878
			c1.071,1.071,2.523,1.682,4.049,1.682c0.384,0,0.764-0.038,1.108-0.114c0.384-0.077,0.728-0.192,1.07-0.345
			c0.343-0.114,0.687-0.305,0.992-0.496c0.306-0.229,0.612-0.46,0.881-0.727c0.264-0.266,0.494-0.571,0.724-0.878
			c0.19-0.305,0.383-0.649,0.536-0.992c0.111-0.345,0.229-0.689,0.307-1.072c0.075-0.342,0.112-0.725,0.112-1.107
			c0-1.529-0.613-2.979-1.679-4.05C369.468,195.716,365.648,195.716,363.509,197.856z"/>
	</g>
	<g>
		<path fill="#B11B1A" stroke="#000000" stroke-width="13" stroke-miterlimit="10" d="M172.68,184.688
			c1.857,1.319,2.313,3.866,1.02,5.688l-60.849,85.706c-1.294,1.822-3.849,2.229-5.705,0.913l-34.793-24.703
			c-1.857-1.318-2.314-3.864-1.02-5.688l60.848-85.705c1.293-1.822,3.849-2.231,5.706-0.913L172.68,184.688z"/>
		<circle cx="106.875" cy="253.156" r="6.125"/>
	</g>
	<g>
		<path fill="#333333" stroke="#000000" stroke-width="13" stroke-miterlimit="10" d="M396.786,283.192
			c-1.899,1.258-4.439,0.768-5.675-1.094l-58.097-87.594c-1.234-1.864-0.696-4.394,1.199-5.652l35.561-23.585
			c1.898-1.259,4.438-0.77,5.675,1.094l58.096,87.594c1.235,1.862,0.698,4.395-1.2,5.652L396.786,283.192z"/>
		<circle cx="356.557" cy="197.17" r="6.125"/>
	</g>
</g>
</svg>
