<?xml version="1.0" encoding="utf-8"?>
<!-- Generator: Adobe Illustrator 16.0.0, SVG Export Plug-In . SVG Version: 6.00 Build 0)  -->
<!DOCTYPE svg PUBLIC "-//W3C//DTD SVG 1.1//EN" "http://www.w3.org/Graphics/SVG/1.1/DTD/svg11.dtd">
<svg version="1.1" xmlns="http://www.w3.org/2000/svg" xmlns:xlink="http://www.w3.org/1999/xlink" x="0px" y="0px"
	 width="393.125px" height="393.125px" viewBox="55.076 51.719 393.125 393.125"
	 enable-background="new 55.076 51.719 393.125 393.125" xml:space="preserve">
<g>
	<g>
		<path fill="#333333" d="M331.163,362.838c-1.56,0-3.12-0.599-4.314-1.781l-85.3-85.295c-2.373-2.379-2.373-6.242,0-8.618
			c2.375-2.375,6.241-2.375,8.615,0l85.299,85.299c2.374,2.377,2.374,6.24,0,8.614C334.281,362.239,332.723,362.838,331.163,362.838
			z"/>
	</g>
	<g>
		<path fill="#333333" d="M361.623,393.3h-42.647c-1.617,0-3.169-0.646-4.313-1.779l-10.405-10.407h-15.744
			c-3.364,0-6.093-2.728-6.093-6.09v-15.758l-26.894-26.892H239.77c-3.362,0-6.091-2.733-6.091-6.095v-15.755l-12.187-12.187
			l-7.87,7.874c-1.146,1.145-2.694,1.777-4.316,1.777l0,0c-1.619,0-3.167-0.645-4.313-1.777l-12.49-12.502
			c-62.353,13.026-117.235-35.169-117.235-95.377c0-53.75,43.732-97.483,97.484-97.483c53.75,0,97.482,43.734,97.482,97.483
			c0,6.435-0.706,13.063-2.105,19.742l12.501,12.5c2.376,2.376,2.376,6.241,0,8.615l-7.873,7.874l93.173,93.168
			c1.145,1.158,1.79,2.709,1.79,4.326v42.648C367.718,390.57,364.987,393.3,361.623,393.3z M321.5,381.113h34.034V347.08
			l-95.707-95.706c-2.376-2.373-2.376-6.237,0-8.612l7.873-7.874l-10.564-10.576c-1.499-1.51-2.122-3.679-1.621-5.752
			c1.691-6.872,2.533-13.683,2.533-20.227c0-47.037-38.276-85.297-85.297-85.297c-47.024,0-85.3,38.261-85.3,85.297
			c0,53.593,49.34,96.424,105.54,82.776c2.059-0.497,4.253,0.111,5.752,1.608l10.563,10.578l7.871-7.873
			c2.378-2.374,6.243-2.374,8.616,0l18.281,18.279c1.146,1.132,1.791,2.683,1.791,4.301v12.187h12.185
			c1.622,0,3.167,0.645,4.313,1.777l30.465,30.466c1.134,1.143,1.777,2.69,1.777,4.312v12.187h12.187
			c1.621,0,3.171,0.646,4.316,1.776L321.5,381.113z"/>
	</g>
	<g>
		<path fill="#333333" d="M142.286,198.333c-16.804,0-30.464-13.672-30.464-30.464c0-16.791,13.66-30.464,30.464-30.464
			s30.464,13.673,30.464,30.464C172.75,184.661,159.09,198.333,142.286,198.333z M142.286,149.591
			c-10.077,0-18.278,8.201-18.278,18.277c0,10.079,8.201,18.281,18.278,18.281c10.077,0,18.277-8.202,18.277-18.281
			C160.563,157.792,152.363,149.591,142.286,149.591z"/>
	</g>
</g>
<g>
	<path fill="#333333" d="M413.204,137.531c-6.305-12.602-17.054-22.633-30.263-28.248c-5.31-2.257-10.868-3.698-16.487-4.395v-6.931
		h4.517c2.928,0,5.3-2.372,5.3-5.3v-2.791c0-6.83-5.537-12.369-12.368-12.369h-9.028c-6.829,0-12.368,5.537-12.368,12.369v2.791
		c0,2.928,2.373,5.3,5.3,5.3h4.319v6.822c-3.455,0.396-6.878,1.098-10.225,2.103l-0.005,0.002c-2.377,0.713-4.733,1.587-7.001,2.597
		c-14.344,6.38-24.878,16.926-31.306,31.342c-2.631,5.903-4.203,11.926-4.668,17.902c-0.18,2.29,1.054,5.383,3.427,6.593
		c1.815,0.929,4.035,0.787,5.505,0.344c0.598-0.179,1.15-0.423,1.641-0.725c2.233-1.377,2.885-4.137,3.074-5.659
		c2.309-18.456,15.347-33.848,33.215-39.214c2.884-0.867,5.873-1.454,8.874-1.741c12.582-1.203,24.864,2.609,34.575,10.732
		c9.746,8.153,15.692,19.622,16.737,32.295c1.682,20.402-10.672,40.319-29.374,47.354c-1.26,0.475-2.526,0.902-3.768,1.275
		c-14.153,4.252-27.798,2.068-40.551-6.491c-2.393-1.605-4.556-3.417-6.593-5.524l7.762-2.373c1.106-0.479,1.798-1.526,1.802-2.731
		c0.004-1.204-0.677-2.259-1.776-2.748l-26.223-11.641c-0.988-0.437-2.049-0.507-3.067-0.2c-2.042,0.611-3.37,2.594-3.155,4.707
		l2.888,28.542c0.092,0.908,0.556,1.681,1.303,2.179c1.207,0.805,2.859,0.707,3.96-0.554l5.123-7.279
		c4.672,5.157,9.669,9.121,15.25,12.102c15.488,8.268,30.985,10.163,46.074,5.631c5.286-1.588,10.57-3.996,15.695-7.157
		c13.043-8.042,22.43-20.497,26.426-35.077C421.716,166.886,420.102,151.316,413.204,137.531z"/>
	<path fill="#B11B1A" d="M393.05,145.804c-0.4-0.354-0.886-0.409-1.526-0.204l-0.819,0.249c-0.693,0.213-1.315,0.421-1.897,0.635
		c-6.518,2.411-14.021,5.197-21.552,8.056c-2.108-1.739-4.777-2.828-7.726-2.828c-6.744,0-12.211,5.468-12.211,12.209
		s5.47,12.209,12.211,12.209c6.74,0,12.209-5.467,12.209-12.209c0-0.154-0.04-0.293-0.045-0.444
		c5.561-3.913,11.415-8.086,17.878-12.736c0.864-0.626,1.648-1.326,2.404-2.006c0.347-0.312,0.682-0.614,1.095-0.971
		c0.247-0.234,0.404-0.609,0.398-1.006C393.466,146.375,393.314,146.038,393.05,145.804z"/>
</g>
</svg>
